<svg width="29" height="28" viewBox="0 0 29 28" fill="none" xmlns="http://www.w3.org/2000/svg">
<path d="M28.0123 14.0005C28.0123 21.0714 22.7725 26.917 15.9655 27.8656C15.329 27.9539 14.6779 28 14.0169 28C13.2539 28 12.5047 27.9392 11.775 27.8215C5.11027 26.7483 0.0205078 20.9684 0.0205078 14.0005C0.0205078 6.26844 6.2871 0 14.0159 0C21.7447 0 28.0123 6.26844 28.0123 14.0005Z" fill="#1877F2"/>
<path d="M15.9656 11.2417V14.2915H19.7373L19.1401 18.3998H15.9656V27.8653C15.3291 27.9536 14.678 27.9997 14.017 27.9997C13.254 27.9997 12.5048 27.9389 11.7751 27.8211V18.3998H8.29663V14.2915H11.7751V10.5599C11.7751 8.24478 13.6512 6.36719 15.9666 6.36719V6.36915C15.9735 6.36915 15.9793 6.36719 15.9862 6.36719H19.7383V9.92028H17.2866C16.5579 9.92028 15.9666 10.5118 15.9666 11.2407L15.9656 11.2417Z" fill="white"/>
</svg>
