<svg width="28" height="28" viewBox="0 0 28 28" fill="none" xmlns="http://www.w3.org/2000/svg">
<path d="M14.04 0H13.9762C6.26411 0 0.012207 6.25374 0.012207 13.9681V14.0319C0.012207 21.7463 6.26411 28 13.9762 28H14.04C21.7521 28 28.004 21.7463 28.004 14.0319V13.9681C28.004 6.25374 21.7521 0 14.04 0Z" fill="url(#paint0_linear_27_51)"/>
<path d="M18.3393 5.69629H9.67792C7.28504 5.69629 5.33838 7.64353 5.33838 10.0371V17.9634C5.33838 20.357 7.28504 22.3042 9.67792 22.3042H18.3393C20.7322 22.3042 22.6789 20.357 22.6789 17.9634V10.0371C22.6789 7.64353 20.7322 5.69629 18.3393 5.69629ZM6.86923 10.0371C6.86923 8.48815 8.12941 7.22759 9.67792 7.22759H18.3393C19.8879 7.22759 21.148 8.48815 21.148 10.0371V17.9634C21.148 19.5124 19.8879 20.7729 18.3393 20.7729H9.67792C8.12941 20.7729 6.86923 19.5124 6.86923 17.9634V10.0371Z" fill="white"/>
<path d="M14.0087 18.0373C16.2339 18.0373 18.0452 16.2264 18.0452 13.9996C18.0452 11.7728 16.2348 9.96191 14.0087 9.96191C11.7825 9.96191 9.97217 11.7728 9.97217 13.9996C9.97217 16.2264 11.7825 18.0373 14.0087 18.0373ZM14.0087 11.4942C15.3905 11.4942 16.5143 12.6184 16.5143 14.0006C16.5143 15.3828 15.3905 16.507 14.0087 16.507C12.6269 16.507 11.503 15.3828 11.503 14.0006C11.503 12.6184 12.6269 11.4942 14.0087 11.4942Z" fill="white"/>
<path d="M18.4189 10.6143C19.0181 10.6143 19.5065 10.1267 19.5065 9.52638C19.5065 8.92602 19.0191 8.43848 18.4189 8.43848C17.8187 8.43848 17.3313 8.92602 17.3313 9.52638C17.3313 10.1267 17.8187 10.6143 18.4189 10.6143Z" fill="white"/>
<defs>
<linearGradient id="paint0_linear_27_51" x1="4.10167" y1="23.9093" x2="23.9203" y2="4.09749" gradientUnits="userSpaceOnUse">
<stop stop-color="#FAAD4F"/>
<stop offset="0.35" stop-color="#DD2A7B"/>
<stop offset="0.62" stop-color="#9537B0"/>
<stop offset="1" stop-color="#515BD4"/>
</linearGradient>
</defs>
</svg>
