<svg width="29" height="28" viewBox="0 0 29 28" fill="none" xmlns="http://www.w3.org/2000/svg">
<path d="M15.0153 0H14.9515C7.23944 0 0.987549 6.25374 0.987549 13.9681V14.0319C0.987549 21.7463 7.23944 28 14.9515 28H15.0153C22.7274 28 28.9793 21.7463 28.9793 14.0319V13.9681C28.9793 6.25374 22.7274 0 15.0153 0Z" fill="#00B0F2"/>
<path d="M6.2891 13.5229C6.32833 13.5033 6.36758 13.4846 6.40582 13.467C7.07073 13.1589 7.74446 12.8705 8.41721 12.5821C8.4535 12.5821 8.51429 12.54 8.54861 12.5262C8.60059 12.5037 8.65257 12.4821 8.70455 12.4595L9.00366 12.331C9.20372 12.2457 9.40279 12.1603 9.60285 12.075C10.002 11.9043 10.4011 11.7336 10.8003 11.5619C11.5985 11.2205 12.3978 10.8782 13.1961 10.5368C13.9944 10.1954 14.7936 9.85306 15.5919 9.51168C16.3902 9.1703 17.1894 8.82794 17.9877 8.48656C18.786 8.14518 19.5853 7.80282 20.3836 7.46144C20.5611 7.38492 20.7533 7.27113 20.9435 7.23778C21.1034 7.20933 21.2593 7.15439 21.4201 7.12398C21.7251 7.06611 22.0615 7.04256 22.3537 7.16911C22.4548 7.21325 22.5479 7.27505 22.6254 7.35255C22.9961 7.71944 22.9441 8.32176 22.8657 8.83775C22.3194 12.434 21.7732 16.0312 21.226 19.6275C21.1514 20.1209 21.0494 20.6624 20.6601 20.9744C20.3306 21.2383 19.8618 21.2677 19.4548 21.1559C19.0478 21.0431 18.6889 20.8066 18.3369 20.5741C16.8766 19.6069 15.4154 18.6397 13.9552 17.6724C13.608 17.4429 13.2216 17.1427 13.2255 16.7258C13.2275 16.4746 13.3775 16.251 13.5305 16.0518C14.7995 14.396 16.6305 13.258 17.9926 11.6787C18.1848 11.456 18.3359 11.0538 18.0721 10.9253C17.9152 10.8488 17.7347 10.9527 17.5915 11.0518C15.791 12.3026 13.9914 13.5543 12.1909 14.805C11.6035 15.2131 10.9876 15.633 10.2795 15.733C9.64601 15.8233 9.00857 15.6467 8.39564 15.4662C7.88176 15.3151 7.36884 15.1601 6.85791 15.0002C6.58626 14.9159 6.30578 14.8246 6.09591 14.6334C5.88604 14.4421 5.76543 14.1203 5.89194 13.8653C5.97138 13.7054 6.12535 13.6043 6.28716 13.5219L6.2891 13.5229Z" fill="#FEFFFC"/>
</svg>
