<svg width="28" height="28" viewBox="0 0 28 28" fill="none" xmlns="http://www.w3.org/2000/svg">
<path d="M14.0317 0H13.9679C6.25581 0 0.00390625 6.25374 0.00390625 13.9681V14.0319C0.00390625 21.7463 6.25581 28 13.9679 28H14.0317C21.7438 28 27.9957 21.7463 27.9957 14.0319V13.9681C27.9957 6.25374 21.7438 0 14.0317 0Z" fill="#292929"/>
<path d="M21.0967 11.1202V13.764C20.6347 13.7188 20.0346 13.6139 19.3706 13.3706C18.5037 13.0527 17.8584 12.6182 17.4357 12.2817V17.6251L17.425 17.6084C17.4318 17.7143 17.4357 17.8223 17.4357 17.9311C17.4357 20.5847 15.2773 22.7448 12.6235 22.7448C9.96977 22.7448 7.81128 20.5847 7.81128 17.9311C7.81128 15.2776 9.96977 13.1165 12.6235 13.1165C12.8834 13.1165 13.1384 13.1371 13.3875 13.1773V15.7828C13.1482 15.6975 12.8912 15.6514 12.6235 15.6514C11.3673 15.6514 10.3444 16.6735 10.3444 17.9311C10.3444 19.1888 11.3673 20.2109 12.6235 20.2109C13.8798 20.2109 14.9026 19.1878 14.9026 17.9311C14.9026 17.8841 14.9016 17.837 14.8987 17.7899V7.40625H17.5397C17.5495 7.62991 17.5583 7.85554 17.5681 8.0792C17.5858 8.51966 17.7427 8.94246 18.0163 9.28874C18.337 9.69585 18.8107 10.1687 19.4756 10.5464C20.0983 10.8995 20.6828 11.0506 21.0967 11.1222V11.1202Z" fill="#FF004F"/>
<path d="M20.1884 8.97375V11.6175C19.7265 11.5724 19.1264 11.4674 18.4624 11.2241C17.5955 10.9063 16.9502 10.4717 16.5275 10.1352V15.4786L16.5167 15.4619C16.5236 15.5679 16.5275 15.6758 16.5275 15.7847C16.5275 18.4382 14.369 20.5983 11.7153 20.5983C9.06157 20.5983 6.90308 18.4382 6.90308 15.7847C6.90308 13.1311 9.06157 10.97 11.7153 10.97C11.9752 10.97 12.2302 10.9906 12.4793 11.0309V13.6363C12.24 13.551 11.983 13.5049 11.7153 13.5049C10.459 13.5049 9.43619 14.5271 9.43619 15.7847C9.43619 17.0423 10.459 18.0645 11.7153 18.0645C12.9716 18.0645 13.9944 17.0413 13.9944 15.7847C13.9944 15.7376 13.9934 15.6905 13.9905 15.6434V5.25781H16.6315C16.6413 5.48148 16.6501 5.7071 16.6599 5.93076C16.6776 6.37122 16.8345 6.79402 17.1081 7.14031C17.4288 7.54741 17.9025 8.02024 18.5674 8.39792C19.1901 8.75009 19.7746 8.90214 20.1884 8.97375Z" fill="#00F7EF"/>
<path d="M20.7661 10.13V12.7737C20.3042 12.7286 19.704 12.6236 19.0401 12.3803C18.1731 12.0625 17.5279 11.6279 17.1052 11.2915V16.6348L17.0944 16.6182C17.1013 16.7241 17.1052 16.832 17.1052 16.9409C17.1052 19.5944 14.9467 21.7546 12.2929 21.7546C9.63921 21.7546 7.48071 19.5944 7.48071 16.9409C7.48071 14.2874 9.63921 12.1263 12.2929 12.1263C12.5528 12.1263 12.8078 12.1469 13.0569 12.1871V14.7926C12.8176 14.7072 12.5607 14.6611 12.2929 14.6611C11.0367 14.6611 10.0138 15.6833 10.0138 16.9409C10.0138 18.1985 11.0367 19.2207 12.2929 19.2207C13.5492 19.2207 14.5721 18.1975 14.5721 16.9409C14.5721 16.8938 14.5711 16.8467 14.5681 16.7996V6.41602H17.2091C17.2189 6.63968 17.2278 6.8653 17.2376 7.08897C17.2552 7.52942 17.4121 7.95222 17.6857 8.29851C18.0064 8.70561 18.4801 9.17844 19.145 9.55612C19.7677 9.90829 20.3522 10.0603 20.7661 10.132V10.13Z" fill="white"/>
</svg>
