<svg width="28" height="28" viewBox="0 0 28 28" fill="none" xmlns="http://www.w3.org/2000/svg">
<path d="M27.9876 14C27.9876 6.26801 21.7214 0 13.9917 0C6.26202 0 -0.00415039 6.26801 -0.00415039 14C-0.00415039 21.732 6.26202 28 13.9917 28C21.7214 28 27.9876 21.732 27.9876 14Z" fill="#FF0209"/>
<path d="M19.9331 20.2006C19.5161 20.2459 19.0892 20.2537 18.6801 20.2528C15.4887 20.2498 12.2973 20.2468 9.10691 20.2449C8.10278 20.2449 7.00916 20.2124 6.23319 19.574C5.35888 18.8528 5.17694 17.6025 5.10613 16.4711C5.00778 14.9207 4.99991 13.3654 5.08056 11.814C5.12481 10.962 5.20251 10.0894 5.56934 9.31817C5.83292 8.76431 6.27253 8.26652 6.83508 8.00484C7.48909 7.70085 8.1736 7.75496 8.87777 7.75398C10.5634 7.75201 12.2491 7.75103 13.9348 7.74906C15.6874 7.74709 17.4409 7.74611 19.1935 7.74414C20.0216 7.74414 20.9106 7.76086 21.5863 8.23996C22.4586 8.85777 22.6956 10.0334 22.8048 11.0968C23.0064 13.0555 23.0094 15.0348 22.8127 16.9935C22.7311 17.8012 22.5953 18.6551 22.0633 19.268C21.5361 19.876 20.7543 20.1101 19.934 20.1996L19.9331 20.2006Z" fill="white"/>
<path d="M16.8459 13.9986L12.0898 11.252V16.7453L16.8459 13.9986Z" fill="#FF0209"/>
</svg>
