<?xml version="1.0" standalone="no"?>
<!DOCTYPE svg PUBLIC "-//W3C//DTD SVG 20010904//EN"
 "http://www.w3.org/TR/2001/REC-SVG-20010904/DTD/svg10.dtd">
<svg version="1.0" xmlns="http://www.w3.org/2000/svg"
 width="512.000000pt" height="512.000000pt" viewBox="0 0 512.000000 512.000000"
 preserveAspectRatio="xMidYMid meet">
<metadata>
Created by potrace 1.14, written by Peter Selinger 2001-2017
</metadata>
<g transform="translate(0.000000,512.000000) scale(0.100000,-0.100000)"
fill="#000000" stroke="none">
<path d="M1860 4884 c0 -9 -47 -15 -152 -18 -14 -1 -24 -4 -21 -8 2 -5 -9 -8
-25 -8 -16 0 -48 -7 -71 -15 -23 -8 -43 -14 -46 -15 -12 -1 -27 -5 -59 -19
-16 -6 -36 -9 -43 -7 -8 3 -11 1 -8 -4 3 -6 -2 -13 -12 -16 -44 -15 -105 -48
-156 -83 -37 -26 -58 -36 -65 -29 -7 7 -10 4 -9 -8 1 -11 -4 -18 -11 -16 -6 1
-11 -2 -10 -7 2 -5 -1 -11 -6 -12 -8 -3 -32 -28 -123 -127 -7 -7 -17 -11 -23
-7 -5 3 -8 0 -5 -7 3 -7 -15 -40 -40 -73 -25 -33 -45 -63 -45 -68 0 -4 -12
-26 -27 -50 -15 -23 -26 -45 -25 -49 1 -5 -3 -8 -8 -8 -6 0 -10 -6 -10 -13 0
-7 -8 -22 -17 -33 -10 -11 -19 -26 -21 -34 -2 -8 -10 -21 -19 -27 -9 -7 -13
-13 -9 -13 10 0 -33 -71 -54 -88 -8 -8 -9 -10 -2 -7 11 6 11 3 0 -14 -7 -12
-16 -21 -21 -21 -4 0 -6 -4 -3 -9 3 -4 -7 -28 -22 -52 -16 -24 -31 -52 -35
-62 -4 -11 -12 -15 -18 -11 -8 4 -9 3 -5 -4 10 -16 -12 -54 -26 -46 -7 4 -8 3
-4 -4 7 -11 -40 -104 -56 -110 -5 -2 -6 -8 -2 -13 3 -5 0 -9 -5 -9 -6 0 -10
-6 -9 -12 2 -7 -2 -12 -9 -11 -7 2 -10 -4 -7 -12 4 -8 1 -15 -5 -15 -6 0 -10
-3 -9 -7 2 -13 -14 -43 -21 -39 -4 3 -8 -4 -8 -15 -2 -27 -22 -51 -36 -42 -6
4 -8 0 -4 -10 7 -18 -39 -107 -56 -107 -5 0 -7 -3 -4 -7 4 -3 1 -16 -8 -29 -8
-12 -30 -51 -49 -85 -19 -35 -39 -63 -45 -62 -6 2 -8 -4 -5 -12 3 -8 -3 -27
-13 -42 -10 -15 -25 -40 -32 -55 -8 -15 -19 -25 -24 -21 -6 3 -7 1 -3 -6 4 -6
2 -19 -6 -28 -7 -9 -12 -19 -11 -22 5 -10 -38 -130 -47 -136 -5 -3 -7 -12 -4
-19 3 -8 0 -17 -5 -21 -6 -3 -9 -11 -6 -16 9 -14 -5 -50 -16 -43 -6 3 -5 -3 2
-14 11 -18 10 -24 -6 -43 -11 -12 -14 -19 -7 -15 9 5 12 -4 12 -33 0 -23 -5
-41 -11 -41 -5 0 -7 5 -3 12 5 7 3 8 -6 3 -11 -6 -10 -10 2 -19 10 -8 14 -30
14 -73 0 -55 -2 -61 -15 -50 -10 7 -9 4 2 -10 11 -13 17 -33 16 -50 -2 -15 1
-34 6 -42 6 -11 4 -13 -11 -8 -18 7 -18 7 0 -8 11 -8 17 -15 13 -15 -4 0 -3
-10 4 -21 9 -17 8 -20 -3 -13 -11 6 -11 5 1 -9 7 -9 10 -17 6 -17 -4 0 -2 -7
5 -15 10 -12 10 -18 0 -31 -11 -12 -11 -15 1 -12 8 2 13 -4 13 -15 -1 -9 2
-17 6 -17 13 0 19 -39 6 -44 -6 -2 -3 -5 7 -5 10 -1 16 -5 12 -10 -3 -5 -1
-12 5 -16 5 -3 10 -11 10 -17 0 -7 -6 -6 -15 2 -9 7 -15 8 -15 2 0 -5 7 -12
15 -16 9 -3 12 -12 8 -23 -6 -16 -5 -16 11 -4 16 13 17 13 14 0 -1 -8 8 -29
20 -47 13 -17 20 -32 17 -32 -4 0 3 -12 14 -26 22 -27 27 -49 14 -57 -5 -2 -2
-2 4 -1 14 3 43 -33 43 -53 0 -6 11 -24 25 -39 13 -14 22 -30 20 -35 -3 -4 -1
-11 5 -14 8 -5 7 -11 -2 -22 -10 -12 -8 -18 12 -34 14 -10 29 -19 33 -19 11 0
5 -33 -8 -43 -6 -5 -4 -7 5 -4 8 2 24 0 34 -6 19 -10 19 -10 0 -25 -15 -11
-15 -13 -2 -9 20 7 43 -17 32 -34 -4 -7 -3 -9 3 -6 5 3 18 -8 28 -25 10 -17
13 -28 8 -25 -5 3 -10 0 -10 -7 0 -8 6 -12 13 -9 6 2 15 0 19 -6 3 -6 -2 -11
-12 -12 -12 0 -9 -4 10 -11 15 -5 25 -13 22 -18 -3 -4 2 -13 10 -20 8 -7 12
-16 9 -21 -3 -5 1 -9 8 -9 9 0 9 -3 -2 -10 -13 -8 -12 -10 4 -10 11 0 16 -5
13 -13 -3 -8 -1 -20 3 -28 5 -8 4 -20 -3 -29 -10 -13 -10 -13 5 -1 14 10 15
18 7 35 -10 20 -9 20 5 3 8 -11 12 -26 9 -35 -4 -10 -2 -13 5 -8 7 4 12 1 12
-8 0 -8 -6 -17 -12 -20 -7 -3 -4 -4 8 -1 15 4 24 -2 34 -22 18 -38 22 -63 9
-63 -5 0 -7 5 -3 12 5 7 3 8 -5 3 -9 -5 -10 -10 -2 -18 7 -7 15 -6 27 4 15 12
16 12 9 -10 -5 -16 -4 -21 4 -17 7 5 11 -1 11 -14 0 -12 4 -19 8 -16 5 3 19
-17 33 -44 13 -27 28 -50 32 -50 5 0 6 -4 2 -9 -3 -5 -1 -12 5 -16 6 -3 17
-20 26 -37 9 -16 12 -28 6 -25 -5 4 -9 0 -9 -8 0 -8 4 -12 9 -9 11 7 39 -16
33 -26 -3 -4 2 -13 10 -20 8 -7 12 -16 9 -21 -3 -5 0 -9 6 -9 6 0 9 -4 6 -9
-3 -5 1 -11 9 -15 8 -3 15 -12 15 -21 0 -8 4 -15 10 -15 5 0 8 -13 6 -29 -3
-24 0 -29 16 -26 10 2 16 0 13 -6 -4 -5 -1 -9 4 -9 6 0 11 -7 11 -16 0 -8 3
-13 8 -11 4 2 23 -14 42 -37 19 -22 29 -36 23 -32 -7 4 -13 2 -13 -3 0 -6 5
-11 10 -11 13 0 50 -37 50 -49 0 -5 10 -11 23 -13 15 -2 21 -9 19 -22 -3 -13
1 -17 12 -13 11 4 20 -3 30 -21 8 -15 17 -26 20 -24 14 5 26 1 26 -9 0 -8 -5
-8 -15 1 -9 7 -15 8 -15 2 0 -5 7 -12 15 -16 9 -3 12 -12 9 -23 -5 -15 -4 -15
4 -3 6 8 8 18 6 22 -3 4 0 8 5 8 6 0 11 -5 11 -11 0 -5 4 -8 9 -5 5 3 20 -5
34 -18 14 -13 29 -21 32 -18 3 4 3 -2 -1 -13 -6 -17 -5 -18 7 -8 11 9 18 8 32
-1 9 -7 17 -17 17 -21 0 -4 -7 -2 -15 5 -13 10 -18 11 -28 1 -9 -10 -8 -11 6
-6 9 4 17 3 17 -3 0 -5 16 -9 35 -7 20 2 33 -1 30 -6 -6 -8 9 -13 29 -10 5 1
6 -5 2 -14 -4 -13 -2 -14 14 -5 23 12 37 -4 21 -24 -8 -9 -7 -13 4 -13 8 0 12
4 9 9 -3 4 0 8 6 8 6 0 8 5 4 13 -5 8 -2 8 9 -2 18 -15 23 -26 7 -16 -5 3 -10
1 -10 -4 0 -14 13 -14 28 1 8 8 15 8 24 0 13 -11 18 -12 43 -12 8 0 15 -5 15
-10 0 -7 -6 -7 -19 -1 -14 8 -20 7 -24 -2 -5 -13 37 -16 50 -4 10 11 35 8 28
-3 -4 -6 -11 -8 -16 -5 -5 4 -9 1 -9 -5 0 -7 6 -10 13 -7 6 2 24 0 40 -4 21
-6 27 -4 27 8 0 11 5 9 20 -8 10 -13 19 -20 20 -15 0 5 7 3 15 -4 13 -11 14
-10 9 4 -4 10 -13 15 -20 12 -7 -3 -16 -2 -18 3 -3 4 10 7 28 7 25 -1 32 -5
29 -16 -3 -9 2 -7 12 5 16 20 16 19 10 -6 -4 -17 -2 -30 6 -34 7 -5 10 -4 6 3
-9 13 2 42 15 42 5 0 6 -10 3 -22 -4 -15 -3 -19 3 -10 10 14 32 13 45 -3 5 -6
7 -4 4 5 -2 8 -9 15 -14 15 -6 0 -15 3 -19 8 -4 4 5 6 19 5 15 -1 27 -5 27 -9
0 -3 12 -11 26 -17 14 -7 23 -8 19 -2 -3 5 -2 10 4 10 5 0 12 -5 14 -10 3 -6
4 -5 3 2 -2 7 -12 13 -23 13 -12 0 -24 3 -27 6 -3 3 66 5 153 5 97 0 157 -4
154 -10 -4 -5 1 -7 11 -3 10 4 20 7 22 7 3 0 2 4 -1 10 -4 6 2 7 17 2 13 -4
89 -8 170 -7 94 1 145 -2 141 -9 -4 -5 1 -7 11 -3 10 4 20 7 22 7 3 0 2 5 -2
11 -4 8 -1 8 12 2 11 -5 42 -9 71 -8 29 1 50 -2 47 -7 -6 -10 -1 -10 20 -2 9
3 13 11 10 16 -4 6 3 5 15 -1 12 -7 27 -9 33 -5 7 5 8 3 3 -6 -6 -10 -4 -12 9
-7 10 4 20 7 22 7 3 0 2 4 -1 10 -4 6 2 7 17 2 13 -4 89 -7 170 -7 91 0 144
-3 141 -9 -4 -5 1 -7 11 -3 10 4 20 7 22 7 3 0 3 4 -1 9 -3 6 6 6 24 1 17 -5
33 -4 39 2 6 6 12 6 16 -1 4 -6 12 -11 17 -11 6 0 8 4 5 8 -3 5 7 8 22 7 15
-1 31 1 37 4 23 12 65 9 65 -5 0 -9 -4 -12 -10 -9 -5 3 -10 1 -10 -4 0 -21 21
-11 30 14 5 14 15 25 22 26 7 0 22 3 33 5 23 6 44 7 64 5 11 -1 11 -4 0 -18
-13 -17 -13 -17 7 0 11 9 23 15 26 12 2 -3 5 2 5 10 0 11 -4 12 -13 4 -8 -7
-14 -7 -19 1 -5 9 15 15 39 11 4 -1 14 6 22 16 7 10 14 14 14 10 0 -4 10 -3
21 4 15 8 19 8 15 0 -4 -6 -2 -11 4 -11 6 0 8 -5 4 -12 -4 -6 -3 -8 4 -5 5 4
8 16 5 27 -4 14 1 21 21 26 14 3 26 11 26 17 0 6 2 8 5 5 10 -10 -7 -37 -20
-32 -16 7 -29 -12 -15 -21 6 -4 7 -11 4 -17 -4 -7 -2 -8 5 -4 9 6 9 11 -1 24
-11 13 -10 15 5 9 13 -5 21 0 29 18 6 14 15 25 20 25 12 0 4 -35 -12 -57 -14
-17 -14 -17 7 0 13 12 20 28 19 47 -2 22 2 27 16 25 10 -2 17 -1 17 3 -3 21 3
24 16 6 14 -18 14 -18 9 2 -3 12 0 25 7 29 8 5 10 4 5 -3 -4 -7 -2 -12 3 -12
6 0 11 6 11 13 0 18 34 49 43 40 4 -3 7 1 7 10 0 9 3 16 8 16 21 -4 32 2 26
14 -4 6 -3 9 1 4 5 -4 16 5 26 19 10 16 19 22 23 15 9 -14 26 -14 26 0 0 5 -5
7 -10 4 -18 -11 -10 12 13 37 12 13 33 37 45 53 19 24 25 27 32 15 6 -9 10
-10 10 -3 0 6 -4 15 -10 18 -13 8 10 44 24 39 15 -5 42 13 33 23 -5 4 -12 1
-17 -7 -6 -8 -10 -10 -10 -5 0 6 11 27 25 47 14 20 25 42 25 47 0 6 5 11 11
11 6 0 9 -6 6 -14 -6 -15 17 -16 30 -1 4 4 3 6 -2 2 -6 -3 -16 3 -23 13 -9 14
-8 21 3 30 8 6 20 8 27 4 10 -6 11 -5 1 7 -10 13 -7 24 16 61 16 25 32 55 36
67 3 11 11 21 16 21 6 0 8 -4 5 -8 -2 -4 -1 -14 3 -21 6 -9 9 -4 9 13 0 14 -5
26 -11 26 -6 0 0 11 13 25 13 14 20 25 16 25 -4 0 4 15 18 33 14 19 23 37 18
42 -4 4 0 6 9 2 12 -4 15 0 13 19 -1 15 5 29 19 39 12 8 17 15 12 15 -5 0 0 7
11 16 10 8 13 12 5 8 -9 -5 -12 -3 -7 5 4 7 17 9 29 6 19 -5 20 -5 4 5 -14 9
-15 15 -6 31 9 17 13 18 27 7 15 -12 16 -11 3 5 -13 16 -13 20 -1 27 8 5 18 6
22 4 4 -3 8 0 8 6 0 7 -7 9 -16 6 -10 -4 -14 -1 -11 6 2 7 12 12 21 12 13 -2
14 1 5 12 -13 16 2 19 18 3 8 -8 13 -7 18 3 5 7 5 10 0 6 -4 -4 -14 -3 -21 3
-11 9 -10 15 2 35 9 13 20 21 25 18 5 -3 6 1 3 9 -7 19 47 101 57 85 4 -6 7 4
6 23 -2 24 2 34 13 34 22 0 31 17 17 34 -8 10 -8 13 -1 8 7 -4 14 5 18 23 6
33 22 40 29 13 2 -10 4 -1 3 21 0 25 6 43 17 51 9 7 17 19 17 27 0 9 9 27 21
42 11 14 17 26 13 26 -4 0 5 14 22 32 16 17 23 27 15 23 -10 -6 -12 -4 -7 4 5
7 15 10 23 6 14 -5 14 -3 2 12 -12 14 -12 16 0 8 11 -6 13 -4 8 8 -8 20 15 40
31 27 9 -7 9 -7 2 2 -13 15 -13 48 0 48 5 0 7 -8 4 -17 -5 -14 -4 -15 4 -4 6
8 8 20 5 27 -2 6 1 15 8 20 8 5 10 3 4 -6 -6 -9 -4 -11 4 -5 9 5 10 10 2 18
-7 7 -7 16 0 29 9 16 13 17 27 6 12 -9 12 -7 -2 10 -21 24 -16 27 17 12 l22
-11 -21 16 c-22 16 -23 55 -2 55 5 0 6 -6 2 -13 -4 -6 -3 -8 1 -4 13 11 15 38
3 31 -6 -4 -8 -1 -6 7 3 8 10 13 15 12 6 -1 8 10 5 24 -4 20 -2 24 9 18 12 -7
12 -6 1 7 -9 11 -10 18 -2 23 6 4 10 12 9 18 -4 35 2 58 14 51 9 -6 9 -4 -1 8
-7 9 -9 19 -4 21 4 3 7 35 6 71 -1 36 2 63 7 61 4 -3 11 -1 14 5 4 6 1 9 -6 8
-10 -2 -14 19 -15 82 -1 47 -6 101 -11 120 -5 19 -9 45 -8 58 1 12 -2 22 -7
22 -13 0 -9 28 5 33 8 4 7 6 -4 6 -10 1 -22 23 -34 64 -11 34 -18 65 -17 70 1
4 -1 7 -6 7 -4 0 -13 15 -21 33 -28 68 -64 138 -72 143 -5 3 -7 10 -4 15 4 5
1 9 -4 9 -6 0 -11 9 -11 21 0 11 -4 17 -10 14 -6 -3 -10 3 -10 14 0 12 -5 21
-10 21 -6 0 -14 10 -19 23 -5 12 -25 49 -44 81 -20 33 -34 63 -32 67 3 4 -2
10 -11 13 -9 4 -14 13 -10 22 3 8 2 12 -4 9 -6 -3 -10 4 -10 16 0 12 -3 19 -7
16 -3 -4 -12 5 -20 19 -16 31 -16 37 -3 29 6 -3 10 -1 10 5 0 6 -8 10 -17 8
-13 -2 -18 3 -17 19 0 12 -4 21 -9 20 -5 -1 -16 12 -26 28 -9 17 -25 42 -35
57 -10 16 -16 35 -12 43 3 8 1 14 -5 12 -5 -1 -19 16 -32 38 -12 22 -25 42
-29 45 -4 3 -11 17 -17 30 -6 14 -22 43 -36 65 -42 67 -74 132 -70 139 3 3 2
4 -2 1 -8 -6 -53 67 -47 77 3 5 1 8 -4 8 -5 0 -17 17 -28 38 -10 20 -25 45
-33 55 -8 9 -10 17 -5 17 5 0 4 4 -2 8 -6 4 -30 36 -54 72 -24 36 -50 71 -57
78 -7 8 -11 18 -7 23 3 5 0 8 -8 7 -7 -2 -12 3 -10 10 1 8 -2 11 -7 8 -12 -8
-42 34 -34 47 3 6 2 7 -4 4 -5 -3 -27 10 -49 29 -21 20 -51 45 -66 56 -16 11
-25 24 -22 30 5 7 2 8 -5 3 -7 -4 -22 1 -34 12 -37 31 -86 63 -97 63 -6 0 -8
5 -4 12 4 6 3 8 -4 4 -6 -3 -32 5 -58 19 -26 14 -53 25 -61 25 -8 0 -11 5 -7
12 4 6 3 8 -4 4 -6 -3 -34 3 -64 13 -29 11 -64 22 -78 25 -14 2 -47 9 -75 15
-27 6 -77 12 -110 14 -33 2 -66 6 -73 11 -6 4 -12 3 -12 -2 0 -10 -30 -9 -48
2 -7 4 -12 2 -12 -5 0 -8 -3 -9 -13 0 -8 6 -17 8 -21 4 -10 -10 -156 -10 -156
0 0 4 -5 5 -12 1 -17 -11 -68 -12 -68 -2 0 5 -8 5 -17 0 -10 -4 -34 -7 -53 -5
-48 4 -45 4 -132 0 -43 -1 -78 0 -78 4 0 3 -10 5 -22 3 -13 -1 -23 -3 -23 -4
0 -1 -17 -3 -37 -4 -21 -1 -38 2 -38 7 0 4 -5 5 -12 1 -18 -11 -68 -12 -68 -2
0 5 -6 6 -12 1 -19 -11 -81 -12 -95 0 -7 5 -13 5 -13 0 0 -10 -60 -10 -78 1
-7 4 -12 2 -12 -5 0 -8 -3 -9 -13 0 -8 6 -17 8 -21 4 -10 -10 -156 -10 -156 0
0 4 -5 5 -12 1 -17 -11 -68 -12 -68 -2 0 5 -10 3 -22 -3 -27 -15 -28 -15 -39
3 -5 7 -9 8 -9 2z m4 -598 c-6 -16 33 -29 43 -14 3 6 1 8 -5 4 -6 -3 -13 -2
-16 3 -4 5 7 9 24 9 29 -1 30 -2 14 -20 -10 -10 -14 -21 -11 -25 4 -3 7 -1 7
6 0 7 5 9 13 5 6 -4 9 -4 5 1 -4 4 -2 13 5 19 15 14 67 19 67 7 0 -5 -11 -8
-25 -7 -13 2 -22 -1 -19 -5 3 -5 19 -7 35 -4 17 3 28 2 25 -3 -2 -4 4 -8 14
-8 10 0 18 3 18 6 -2 18 3 30 13 30 6 0 8 -10 5 -22 -4 -16 -2 -14 6 5 13 30
27 36 24 10 -1 -20 58 -27 77 -9 14 14 81 21 73 7 -3 -5 -17 -8 -30 -7 -17 2
-23 -1 -19 -10 3 -8 10 -11 17 -7 6 4 17 8 25 10 8 1 17 6 20 10 10 14 52 13
67 -1 7 -8 11 -15 9 -18 -2 -2 5 -4 15 -4 19 0 19 1 0 19 -25 22 -26 30 -2 20
9 -5 31 -8 47 -7 48 4 68 -5 54 -22 -7 -8 -7 -14 -1 -14 15 0 22 26 9 39 -18
18 -2 12 21 -8 12 -10 20 -20 18 -22 -3 -2 8 -4 24 -4 16 -1 26 3 23 8 -6 10
37 5 55 -7 8 -5 19 -3 25 3 9 9 8 11 -6 5 -14 -5 -16 -2 -11 12 5 16 4 16 -5
4 -6 -8 -11 -10 -11 -4 0 18 13 24 27 13 9 -9 17 -8 27 0 12 10 17 8 25 -8 8
-13 17 -18 28 -14 11 4 14 3 9 -6 -6 -9 -3 -9 13 1 12 7 21 16 21 19 0 12 54
7 66 -6 7 -7 11 -14 9 -17 -2 -2 5 -4 15 -4 19 0 19 1 0 19 -25 22 -26 31 -2
19 9 -5 22 -7 29 -5 6 2 15 -1 19 -8 5 -9 2 -10 -9 -6 -11 4 -14 2 -11 -8 3
-8 16 -11 32 -9 15 3 40 6 55 8 16 1 32 7 35 13 9 11 82 17 82 5 0 -4 -15 -7
-34 -7 -25 1 -33 -2 -29 -12 4 -10 9 -11 18 -3 13 11 42 9 63 -4 8 -5 19 -3
25 3 9 9 8 11 -6 5 -14 -5 -16 -2 -11 12 5 16 4 16 -5 4 -6 -8 -11 -10 -11 -4
0 18 13 24 27 13 9 -8 17 -8 26 0 17 14 38 -5 30 -28 -4 -13 -3 -14 5 -1 6 8
9 17 6 21 -2 4 1 11 7 15 7 4 9 3 6 -3 -4 -7 18 -9 64 -8 38 1 72 -2 75 -7 3
-4 9 -6 14 -3 5 3 11 1 15 -5 4 -6 11 -8 16 -5 5 4 9 1 9 -5 0 -6 -7 -13 -15
-16 -8 -4 -15 -11 -15 -17 0 -5 8 -3 18 6 10 10 22 14 27 10 4 -5 5 -2 1 5 -4
6 -2 12 3 12 18 0 12 -28 -6 -33 -10 -2 -2 -4 18 -3 31 0 34 2 23 14 -8 7 -14
16 -14 20 0 4 10 -3 22 -15 17 -17 19 -25 10 -36 -9 -11 -8 -14 3 -14 8 0 12
4 9 9 -3 4 0 8 6 8 6 0 8 6 4 13 -4 6 2 3 14 -7 12 -11 22 -16 22 -12 0 4 5 4
10 1 7 -4 6 -14 -2 -28 -10 -20 -10 -21 6 -7 16 13 20 12 33 -5 8 -11 18 -19
22 -18 10 2 86 -105 87 -125 1 -9 2 -23 3 -29 1 -7 6 -13 12 -13 8 0 8 5 -1
15 -7 8 -10 15 -6 15 6 0 35 -44 80 -125 16 -27 23 -44 15 -37 -7 6 -18 12
-23 12 -6 0 4 -10 22 -21 17 -12 32 -25 32 -31 0 -5 10 -24 22 -41 16 -23 17
-28 5 -18 -15 12 -17 12 -12 -2 4 -8 16 -17 27 -20 11 -3 17 -10 14 -15 -3 -5
1 -15 9 -22 8 -7 12 -16 9 -21 -3 -5 0 -9 7 -9 7 0 9 -10 7 -25 -5 -22 -3 -23
10 -13 13 10 14 10 8 1 -4 -7 -2 -13 3 -13 6 0 10 -3 10 -7 -3 -20 2 -34 10
-29 5 3 12 -1 15 -10 3 -8 2 -12 -4 -9 -19 12 -10 -4 21 -34 24 -24 28 -35 20
-45 -9 -10 -6 -19 9 -37 l21 -24 -17 28 c-9 15 -12 27 -7 27 5 0 16 -12 24
-27 19 -38 23 -51 10 -33 -8 11 -11 12 -11 2 0 -7 -4 -11 -9 -7 -5 3 -12 1
-15 -4 -4 -5 2 -8 11 -6 29 4 55 -15 50 -36 -3 -10 0 -22 5 -26 7 -3 8 -1 4 5
-4 7 -2 12 3 12 15 0 14 -37 -1 -44 -7 -3 -3 -3 9 0 18 4 25 0 33 -21 6 -15 7
-31 4 -37 -4 -6 -2 -8 3 -5 10 7 28 -20 25 -35 -1 -5 2 -8 8 -8 5 0 10 -5 10
-11 0 -5 -4 -8 -9 -4 -5 3 -12 1 -16 -4 -3 -6 3 -8 14 -6 20 4 51 -31 55 -63
2 -9 8 -18 14 -20 7 -2 12 -8 12 -13 0 -5 11 -27 25 -49 14 -22 25 -47 25 -55
0 -10 5 -13 12 -9 6 4 8 3 4 -4 -3 -6 1 -18 10 -26 8 -9 13 -16 9 -16 -3 0 -1
-6 5 -12 40 -49 91 -149 109 -216 17 -60 20 -132 7 -132 -7 0 -8 -3 -1 -8 15
-10 13 -31 -5 -43 -13 -9 -12 -10 3 -5 9 3 17 1 17 -4 0 -6 -5 -10 -11 -10 -6
0 -8 -7 -5 -16 4 -9 1 -24 -6 -32 -11 -13 -11 -14 2 -7 9 5 7 -1 -5 -15 -11
-13 -14 -20 -8 -16 9 5 11 2 7 -8 -3 -9 -10 -13 -15 -10 -5 3 -6 -1 -4 -8 3
-8 -7 -37 -22 -66 -72 -136 -87 -161 -95 -156 -4 3 -5 -2 -2 -10 3 -9 1 -16
-5 -16 -6 0 -11 -6 -11 -14 0 -7 -7 -19 -15 -26 -8 -7 -12 -16 -9 -21 3 -5 1
-9 -3 -9 -5 0 -19 -22 -32 -50 -13 -27 -27 -47 -32 -45 -4 3 -11 0 -15 -6 -4
-8 -3 -9 4 -5 18 11 15 3 -27 -71 -22 -37 -44 -67 -49 -66 -5 1 -9 -5 -8 -15
0 -9 -5 -16 -12 -14 -8 1 -11 -2 -7 -7 7 -13 -22 -71 -36 -71 -6 0 -7 -4 -4
-10 10 -16 -6 -34 -17 -19 -7 11 -9 11 -7 -1 3 -31 -1 -51 -10 -46 -5 3 -8 -2
-7 -11 0 -10 -4 -18 -11 -18 -6 0 -15 -4 -20 -9 -5 -5 -3 -6 5 -2 7 4 12 1 12
-7 0 -8 -7 -18 -16 -21 -8 -3 -13 -10 -10 -15 3 -5 -7 -21 -22 -37 -15 -15
-22 -24 -15 -21 7 5 6 -4 -3 -23 -9 -17 -19 -28 -24 -25 -4 3 -7 -3 -6 -13 0
-9 -5 -16 -12 -14 -8 1 -11 -2 -7 -8 4 -6 1 -17 -5 -25 -7 -8 -9 -15 -6 -15 6
0 -2 -11 -31 -44 -7 -8 -9 -16 -6 -20 4 -3 1 -6 -5 -6 -7 0 -11 -3 -11 -7 3
-20 -3 -32 -28 -58 -16 -16 -21 -25 -13 -20 11 6 10 3 -3 -12 -9 -11 -14 -23
-10 -26 3 -4 1 -7 -5 -7 -7 0 -12 -5 -12 -10 0 -6 -20 -41 -45 -78 -46 -71
-88 -110 -166 -155 -36 -21 -48 -24 -58 -14 -10 9 -11 8 -5 -7 6 -16 4 -18
-14 -14 -12 4 -20 3 -17 -2 5 -9 -20 -16 -81 -25 -21 -3 -45 -8 -53 -11 -7 -2
-20 1 -27 7 -8 6 -14 7 -14 2 0 -12 -140 -11 -159 1 -9 6 -12 5 -8 0 7 -13
-453 -12 -472 0 -9 6 -12 5 -8 0 7 -13 -693 -12 -712 0 -10 6 -12 5 -7 -2 5
-8 -3 -10 -26 -6 -61 11 -148 38 -148 47 0 4 -4 6 -9 2 -5 -3 -17 3 -27 12
-10 10 -20 18 -23 18 -3 0 -5 4 -3 8 1 5 -1 6 -6 3 -11 -7 -78 42 -75 55 2 5
-3 8 -10 6 -6 -1 -11 4 -10 11 2 6 -3 12 -10 12 -13 0 -67 71 -67 88 0 5 -7
15 -15 22 -8 7 -12 16 -9 21 3 5 1 9 -4 9 -5 0 -18 17 -27 38 -10 20 -29 54
-43 74 -13 21 -22 44 -19 52 4 10 1 13 -8 10 -8 -3 -16 4 -20 18 -4 13 -16 35
-26 49 -10 14 -16 29 -12 33 3 3 1 6 -6 6 -7 0 -9 5 -6 10 3 6 2 10 -3 10 -5
0 -17 15 -26 33 -9 17 -28 50 -42 72 -13 22 -32 56 -42 75 -9 19 -20 37 -23
40 -3 3 -21 34 -40 70 -19 36 -40 71 -47 78 -7 8 -10 18 -7 23 4 5 1 9 -5 9
-6 0 -17 15 -25 34 -8 19 -20 38 -26 41 -5 4 -8 13 -5 21 3 8 1 14 -3 14 -9 0
-131 205 -131 220 0 4 -7 13 -15 20 -9 7 -13 15 -11 18 3 2 -2 11 -10 19 -8 8
-12 18 -9 23 3 4 -2 10 -10 14 -8 3 -15 10 -15 16 0 6 6 8 13 5 6 -4 4 0 -5 8
-21 17 -23 33 -5 41 6 3 4 4 -7 3 -10 -1 -20 5 -22 13 -1 8 -4 24 -6 35 -2 11
-8 26 -12 34 -7 11 -6 12 5 6 12 -7 12 -6 1 7 -7 9 -12 20 -11 24 1 5 0 11 -1
14 -7 15 -6 89 1 84 5 -3 5 6 -1 20 -6 16 -6 26 0 26 5 0 6 7 3 17 -5 12 -3
14 8 8 11 -7 11 -5 -1 10 -9 11 -10 16 -2 11 6 -4 12 -2 12 3 0 6 -5 11 -11
11 -5 0 -7 5 -4 10 4 6 10 8 14 5 5 -2 6 6 3 20 -4 25 17 85 31 85 5 0 5 5 1
12 -5 7 -2 9 9 5 12 -5 15 0 12 25 -4 27 -3 28 12 16 15 -12 15 -11 5 9 -7 13
-8 24 -3 27 5 4 12 0 15 -6 3 -7 3 -2 0 11 -5 19 -3 23 10 18 8 -3 18 -1 22 5
4 6 3 8 -4 4 -6 -3 -13 -2 -17 4 -6 10 8 15 30 10 6 -1 5 4 -2 11 -6 6 -9 18
-6 26 5 12 8 11 23 -2 14 -12 20 -13 26 -4 4 7 3 10 -4 5 -6 -3 -15 1 -21 11
-7 13 -4 24 10 42 10 13 19 29 19 37 0 8 7 14 15 14 8 0 12 6 9 14 -3 8 0 17
7 22 8 5 10 3 4 -6 -5 -9 -4 -11 4 -6 6 4 9 16 6 26 -3 10 0 22 8 27 7 4 19
23 26 40 7 18 18 30 24 26 6 -4 8 2 4 16 -4 17 -2 20 7 12 10 -8 12 -5 11 11
-1 21 31 88 42 88 2 0 1 -5 -3 -12 -4 -7 -3 -8 5 -4 6 4 9 16 6 25 -6 21 23
50 48 46 21 -4 21 -1 0 16 -14 12 -16 12 -8 0 5 -9 4 -12 -3 -7 -16 10 18 64
48 75 17 6 19 10 8 10 -25 1 -12 25 20 39 19 8 20 10 5 6 -23 -5 -23 -5 -6 25
14 24 20 27 32 18 12 -10 13 -9 3 10 -10 18 -9 24 5 32 10 6 14 11 10 11 -4 0
-3 9 3 20 8 16 17 19 33 14 20 -6 20 -6 4 10 -22 23 -21 30 3 23 10 -3 18 -1
17 3 -1 5 7 16 18 24 16 13 17 15 3 10 -23 -8 -24 14 -2 44 10 15 22 21 33 18
13 -5 13 -4 -2 8 -17 13 -17 15 8 34 26 20 35 39 13 26 -7 -4 -5 1 4 12 9 10
21 32 27 48 8 18 16 26 26 22 8 -3 17 0 21 6 4 6 3 8 -4 4 -6 -3 -13 -2 -17 4
-3 5 -1 10 4 10 6 0 10 5 9 12 -2 7 2 12 9 13 15 0 30 15 15 15 -6 0 -9 6 -6
14 3 8 12 12 20 9 8 -3 11 -10 7 -16 -3 -6 -1 -7 5 -3 13 8 5 36 -12 36 -6 0
-4 4 4 10 9 5 19 5 26 -1 8 -7 15 -6 20 2 4 7 3 9 -3 6 -6 -4 -13 -1 -16 7 -9
23 3 26 32 9 24 -14 24 -14 7 0 -18 16 -16 54 3 43 5 -3 11 4 14 15 3 12 10
18 16 15 5 -4 17 4 26 16 15 21 16 21 13 3 -2 -12 3 -20 12 -20 8 0 15 8 16
18 1 12 1 13 -3 2 -2 -8 -9 -15 -14 -15 -15 0 8 38 30 49 10 6 21 7 25 4 3 -3
6 -1 6 6 0 8 7 11 15 7 8 -3 15 -2 15 2 0 4 11 12 25 19 14 6 23 7 20 3 -9
-15 16 -23 28 -10 9 10 9 11 -3 5 -10 -5 -12 -5 -5 3 17 18 50 19 47 1 -1 -9
6 -23 15 -30 16 -13 17 -12 5 3 -10 13 -11 22 -2 37 12 24 22 28 14 7z m186
-7 c0 -14 -17 -10 -23 5 -4 10 -1 13 9 9 7 -3 14 -9 14 -14z m124 0 c-8 -13
-21 -11 -27 5 -4 10 0 12 14 9 10 -3 16 -9 13 -14z m560 0 c-6 -11 -24 -2 -24
11 0 5 7 7 15 4 8 -4 12 -10 9 -15z m170 9 c-5 -8 -2 -9 9 -5 10 3 17 2 17 -2
0 -7 -23 -21 -34 -21 -1 0 -2 9 -3 20 -1 11 3 20 8 20 6 0 7 -5 3 -12z m70 -9
c-8 -13 -21 -11 -27 5 -4 10 0 12 14 9 10 -3 16 -9 13 -14z m-844 1 c0 -5 -5
-10 -11 -10 -5 0 -7 5 -4 10 3 6 8 10 11 10 2 0 4 -4 4 -10z m460 0 c0 -5 -7
-7 -15 -4 -8 4 -22 1 -30 -6 -11 -9 -15 -9 -15 -1 0 7 -4 10 -9 6 -5 -3 -12
-1 -15 4 -3 4 15 9 39 9 25 1 45 -3 45 -8z m-1290 -534 c0 -3 -4 -8 -10 -11
-5 -3 -10 -1 -10 4 0 6 5 11 10 11 6 0 10 -2 10 -4z m-910 -1996 c10 -19 10
-20 -9 -8 -22 13 -28 28 -11 28 5 0 14 -9 20 -20z m40 -60 c0 -5 -2 -10 -4
-10 -3 0 -8 5 -11 10 -3 6 -1 10 4 10 6 0 11 -4 11 -10z m1267 -1406 c-3 -3
-12 -4 -19 -1 -8 3 -5 6 6 6 11 1 17 -2 13 -5z"/>
<path d="M2656 4275 c-3 -8 -1 -15 4 -15 6 0 10 7 10 15 0 8 -2 15 -4 15 -2 0
-6 -7 -10 -15z"/>
<path d="M3136 4275 c-3 -8 -1 -15 4 -15 6 0 10 7 10 15 0 8 -2 15 -4 15 -2 0
-6 -7 -10 -15z"/>
<path d="M2287 4263 c3 -7 6 -13 8 -13 1 0 7 6 13 13 8 10 6 13 -7 13 -11 0
-17 -6 -14 -13z"/>
<path d="M2391 4259 c4 -9 5 -19 2 -23 -3 -3 -1 -6 6 -6 8 0 10 7 6 21 -4 12
-3 19 1 17 5 -3 18 -2 29 2 15 6 10 8 -17 7 -30 -2 -35 -5 -27 -18z"/>
<path d="M2767 4263 c3 -7 6 -13 8 -13 1 0 7 6 13 13 8 10 6 13 -7 13 -11 0
-17 -6 -14 -13z"/>
<path d="M3215 4271 c-3 -6 -10 -9 -15 -6 -5 3 -11 1 -15 -4 -3 -6 4 -8 16 -6
25 5 35 13 27 21 -3 3 -9 0 -13 -5z"/>
<path d="M3243 4264 c0 -6 6 -11 14 -11 7 0 13 5 13 11 0 6 4 5 9 -2 7 -11 9
-11 13 0 4 10 -2 14 -21 13 -15 0 -28 -5 -28 -11z"/>
<path d="M3318 4268 c8 -10 9 -19 3 -22 -5 -3 -12 0 -14 6 -4 8 -6 9 -6 2 -1
-6 7 -18 16 -25 12 -10 14 -10 9 -1 -4 7 -1 15 8 18 9 3 16 11 16 17 0 6 -3 7
-7 4 -3 -4 -13 -1 -22 6 -14 10 -14 10 -3 -5z"/>
<path d="M1744 4252 c-6 -4 -16 -18 -23 -32 -12 -24 -11 -24 4 -5 9 11 24 19
33 18 10 -1 11 0 4 3 -6 3 -10 10 -6 15 6 11 3 11 -12 1z"/>
<path d="M2090 4256 c0 -2 7 -9 15 -16 9 -7 15 -8 15 -2 0 5 -7 12 -15 16 -8
3 -15 4 -15 2z"/>
<path d="M2315 4249 c-4 -6 -5 -12 -2 -15 2 -3 7 2 10 11 7 17 1 20 -8 4z"/>
<path d="M2795 4249 c-4 -6 -5 -12 -2 -15 2 -3 7 2 10 11 7 17 1 20 -8 4z"/>
<path d="M1808 4243 c6 -2 9 -10 6 -15 -4 -7 -2 -8 5 -4 13 9 5 26 -12 25 -9
0 -8 -2 1 -6z"/>
<path d="M1993 4235 c0 -8 4 -12 9 -9 5 3 6 10 3 15 -9 13 -12 11 -12 -6z"/>
<path d="M2666 4238 c3 -5 10 -6 15 -3 13 9 11 12 -6 12 -8 0 -12 -4 -9 -9z"/>
<path d="M3033 4233 c0 -9 4 -10 14 -2 7 6 13 12 13 14 0 1 -6 2 -13 2 -8 0
-14 -6 -14 -14z"/>
<path d="M1697 4233 c-4 -3 -7 -11 -7 -17 0 -6 5 -5 12 2 6 6 9 14 7 17 -3 3
-9 2 -12 -2z"/>
<path d="M1660 4220 c-11 -7 -11 -10 -2 -10 8 0 10 -5 6 -12 -4 -7 -3 -9 1 -5
7 6 17 37 12 37 -1 0 -9 -5 -17 -10z"/>
<path d="M3487 4199 c7 -9 9 -20 5 -25 -4 -4 1 -2 11 5 9 7 17 16 17 19 0 3
-3 2 -7 -1 -3 -4 -13 -1 -22 6 -14 10 -14 10 -4 -4z"/>
<path d="M1586 4154 c-11 -8 -16 -14 -10 -14 13 0 39 18 34 24 -3 2 -14 -2
-24 -10z"/>
<path d="M3540 4163 c0 -6 5 -15 10 -18 6 -4 8 -10 5 -15 -3 -5 -1 -11 4 -14
12 -8 8 14 -7 39 -6 11 -12 15 -12 8z"/>
<path d="M1540 4126 c0 -2 7 -6 15 -10 8 -3 15 -1 15 4 0 6 -7 10 -15 10 -8 0
-15 -2 -15 -4z"/>
<path d="M3586 4116 c3 -8 13 -17 22 -21 13 -5 13 -2 -3 15 -21 24 -26 25 -19
6z"/>
<path d="M3628 4038 c5 -5 16 -8 23 -6 8 3 3 7 -10 11 -17 4 -21 3 -13 -5z"/>
<path d="M1415 3940 c3 -5 8 -10 11 -10 2 0 4 5 4 10 0 6 -5 10 -11 10 -5 0
-7 -4 -4 -10z"/>
<path d="M3710 3925 c0 -8 4 -15 10 -15 5 0 7 7 4 15 -4 8 -8 15 -10 15 -2 0
-4 -7 -4 -15z"/>
<path d="M1403 3903 c-7 -2 -13 -9 -13 -15 0 -7 5 -7 13 1 8 6 18 7 22 3 5 -4
5 -1 1 6 -4 6 -8 12 -9 11 -1 0 -8 -3 -14 -6z"/>
<path d="M3730 3889 c0 -5 -6 -7 -12 -3 -7 4 -9 3 -5 -1 13 -15 36 -14 30 1
-6 17 -13 18 -13 3z"/>
<path d="M1320 3791 c-7 -15 -7 -19 5 -17 8 1 18 6 22 11 5 4 2 5 -6 0 -11 -6
-13 -4 -8 8 9 23 0 21 -13 -2z"/>
<path d="M3842 3684 c10 -10 20 -16 22 -13 3 3 -5 11 -17 18 -21 13 -21 12 -5
-5z"/>
<path d="M1246 3662 c-3 -5 1 -9 9 -9 8 0 15 4 15 9 0 4 -4 8 -9 8 -6 0 -12
-4 -15 -8z"/>
<path d="M3857 3639 c4 -13 8 -18 11 -10 2 7 -1 18 -6 23 -8 8 -9 4 -5 -13z"/>
<path d="M1207 3579 c7 -7 15 -10 18 -7 3 3 -2 9 -12 12 -14 6 -15 5 -6 -5z"/>
<path d="M3896 3577 c3 -10 9 -15 12 -12 3 3 0 11 -7 18 -10 9 -11 8 -5 -6z"/>
<path d="M1170 3526 c0 -2 7 -7 16 -10 8 -3 12 -2 9 4 -6 10 -25 14 -25 6z"/>
<path d="M3950 3509 c0 -5 -6 -7 -12 -3 -7 4 -10 4 -6 0 3 -4 10 -8 15 -8 4 0
14 -5 22 -11 12 -10 12 -9 2 11 -13 24 -21 28 -21 11z"/>
<path d="M1133 3463 c4 -6 2 -13 -5 -15 -8 -3 -6 -6 4 -10 17 -7 19 15 3 29
-4 4 -5 3 -2 -4z"/>
<path d="M1090 3390 c-9 -6 -11 -10 -3 -10 7 0 10 -7 6 -17 -3 -10 -3 -15 1
-12 6 6 18 49 13 49 -1 0 -9 -5 -17 -10z"/>
<path d="M1051 3327 c2 -1 13 -9 24 -17 19 -14 19 -14 6 3 -7 9 -18 17 -24 17
-6 0 -8 -1 -6 -3z"/>
<path d="M1039 3308 c-6 -21 -6 -39 1 -43 5 -3 7 3 6 12 -2 10 2 21 8 25 8 5
7 8 -1 8 -7 0 -13 -1 -14 -2z"/>
<path d="M4150 3156 c0 -2 8 -10 18 -17 15 -13 16 -12 3 4 -13 16 -21 21 -21
13z"/>
<path d="M4164 3078 c-4 -7 -3 -8 5 -4 6 4 20 2 29 -6 15 -12 16 -11 3 5 -16
20 -27 22 -37 5z"/>
<path d="M4220 3020 c-9 -6 -10 -10 -3 -10 6 0 15 5 18 10 8 12 4 12 -15 0z"/>
<path d="M4235 3001 c-6 -11 13 -26 22 -17 4 3 1 6 -6 6 -7 0 -9 5 -6 10 3 6
4 10 1 10 -3 0 -7 -4 -11 -9z"/>
<path d="M4324 2838 c-4 -7 -4 -10 1 -6 4 4 15 2 24 -5 14 -11 14 -10 2 6 -16
20 -18 21 -27 5z"/>
<path d="M4340 2806 c0 -3 9 -10 20 -16 11 -6 20 -8 20 -6 0 3 -9 10 -20 16
-11 6 -20 8 -20 6z"/>
<path d="M4366 2762 c-3 -5 1 -9 9 -9 8 0 12 4 9 9 -3 4 -7 8 -9 8 -2 0 -6 -4
-9 -8z"/>
<path d="M1350 1299 c0 -5 5 -7 10 -4 6 3 10 8 10 11 0 2 -4 4 -10 4 -5 0 -10
-5 -10 -11z"/>
<path d="M610 3841 c0 -6 4 -13 10 -16 6 -3 7 1 4 9 -7 18 -14 21 -14 7z"/>
<path d="M200 3120 c-9 -6 -10 -10 -3 -10 6 0 15 5 18 10 8 12 4 12 -15 0z"/>
<path d="M5030 2640 c0 -5 5 -10 11 -10 5 0 7 5 4 10 -3 6 -8 10 -11 10 -2 0
-4 -4 -4 -10z"/>
<path d="M5015 2301 c-3 -5 -2 -12 3 -15 5 -3 9 1 9 9 0 17 -3 19 -12 6z"/>
<path d="M118 2213 c7 -3 16 -2 19 1 4 3 -2 6 -13 5 -11 0 -14 -3 -6 -6z"/>
<path d="M190 2060 c0 -5 5 -10 11 -10 5 0 7 5 4 10 -3 6 -8 10 -11 10 -2 0
-4 -4 -4 -10z"/>
<path d="M210 1998 c0 -6 3 -8 7 -5 3 4 13 1 22 -6 14 -11 14 -10 2 6 -15 20
-31 22 -31 5z"/>
<path d="M4835 1900 c3 -5 8 -10 11 -10 2 0 4 5 4 10 0 6 -5 10 -11 10 -5 0
-7 -4 -4 -10z"/>
<path d="M291 1884 c0 -11 3 -14 6 -6 3 7 2 16 -1 19 -3 4 -6 -2 -5 -13z"/>
<path d="M4810 1886 c0 -2 7 -7 16 -10 8 -3 12 -2 9 4 -6 10 -25 14 -25 6z"/>
<path d="M4810 1861 c0 -6 4 -13 10 -16 6 -3 7 1 4 9 -7 18 -14 21 -14 7z"/>
<path d="M305 1840 c-3 -6 1 -7 9 -4 18 7 21 14 7 14 -6 0 -13 -4 -16 -10z"/>
<path d="M4787 1837 c-3 -8 1 -14 8 -14 7 0 11 6 8 14 -3 7 -6 13 -8 13 -2 0
-5 -6 -8 -13z"/>
<path d="M330 1820 c0 -5 5 -10 11 -10 5 0 7 5 4 10 -3 6 -8 10 -11 10 -2 0
-4 -4 -4 -10z"/>
<path d="M295 1811 c-3 -5 -2 -12 3 -15 5 -3 9 1 9 9 0 17 -3 19 -12 6z"/>
<path d="M333 1785 c0 -8 4 -12 9 -9 5 3 6 10 3 15 -9 13 -12 11 -12 -6z"/>
<path d="M4770 1771 c0 -6 4 -13 10 -16 6 -3 7 1 4 9 -7 18 -14 21 -14 7z"/>
<path d="M4713 1691 c0 -11 5 -18 9 -15 4 3 5 11 1 19 -7 21 -12 19 -10 -4z"/>
<path d="M4660 1620 c0 -6 7 -10 15 -10 8 0 15 2 15 4 0 2 -7 6 -15 10 -8 3
-15 1 -15 -4z"/>
<path d="M441 1604 c0 -11 3 -14 6 -6 3 7 2 16 -1 19 -3 4 -6 -2 -5 -13z"/>
<path d="M460 1576 c0 -2 7 -7 16 -10 8 -3 12 -2 9 4 -6 10 -25 14 -25 6z"/>
<path d="M4634 1546 c1 -8 5 -18 8 -22 4 -3 5 1 4 10 -1 8 -5 18 -8 22 -4 3
-5 -1 -4 -10z"/>
<path d="M4604 1519 c-3 -6 -2 -15 4 -21 6 -6 12 -6 17 3 6 8 4 10 -5 4 -10
-6 -12 -4 -7 8 7 19 2 23 -9 6z"/>
<path d="M4574 1459 c-3 -6 -3 -13 0 -16 3 -4 6 -1 6 5 0 6 7 9 15 6 8 -4 15
-4 15 -1 0 11 -30 16 -36 6z"/>
<path d="M537 1449 c7 -7 15 -10 18 -7 3 3 -2 9 -12 12 -14 6 -15 5 -6 -5z"/>
<path d="M630 1279 c0 -5 5 -7 10 -4 6 3 10 8 10 11 0 2 -4 4 -10 4 -5 0 -10
-5 -10 -11z"/>
<path d="M650 1260 c0 -5 5 -10 11 -10 5 0 7 5 4 10 -3 6 -8 10 -11 10 -2 0
-4 -4 -4 -10z"/>
<path d="M4439 1238 c-6 -20 -6 -39 0 -42 4 -3 7 6 7 20 0 20 -4 32 -7 22z"/>
<path d="M4386 1125 c-11 -8 -15 -15 -9 -15 6 0 16 7 23 15 16 19 11 19 -14 0z"/>
<path d="M735 1100 c-3 -5 -1 -10 4 -10 6 0 11 5 11 10 0 6 -2 10 -4 10 -3 0
-8 -4 -11 -10z"/>
<path d="M760 1051 c0 -6 4 -13 10 -16 6 -3 7 1 4 9 -7 18 -14 21 -14 7z"/>
<path d="M790 1021 c0 -6 4 -13 10 -16 6 -3 7 1 4 9 -7 18 -14 21 -14 7z"/>
<path d="M4310 978 c0 -4 4 -8 9 -8 6 0 12 4 15 8 3 5 -1 9 -9 9 -8 0 -15 -4
-15 -9z"/>
<path d="M4285 960 c-3 -5 -1 -10 4 -10 6 0 11 5 11 10 0 6 -2 10 -4 10 -3 0
-8 -4 -11 -10z"/>
<path d="M816 941 c-3 -5 2 -15 12 -22 15 -13 16 -12 4 3 -11 14 -10 17 5 21
16 4 16 5 1 6 -9 0 -19 -3 -22 -8z"/>
<path d="M850 910 c0 -5 5 -10 11 -10 5 0 7 5 4 10 -3 6 -8 10 -11 10 -2 0 -4
-4 -4 -10z"/>
<path d="M846 882 c-3 -5 1 -9 9 -9 8 0 12 4 9 9 -3 4 -7 8 -9 8 -2 0 -6 -4
-9 -8z"/>
<path d="M893 838 c1 -16 5 -28 9 -28 10 0 9 9 -2 35 -8 17 -8 16 -7 -7z"/>
<path d="M4194 798 c-12 -14 -13 -18 -3 -10 9 6 18 10 21 7 2 -3 5 2 5 10 0
19 0 19 -23 -7z"/>
<path d="M4135 719 c-3 -4 2 -6 10 -5 21 3 28 13 10 13 -9 0 -18 -4 -20 -8z"/>
<path d="M994 699 c14 -11 23 -25 20 -31 -5 -7 -2 -8 5 -3 9 5 7 13 -10 31
-12 13 -27 24 -32 24 -5 0 2 -9 17 -21z"/>
<path d="M4106 672 c-3 -5 1 -9 9 -9 8 0 12 4 9 9 -3 4 -7 8 -9 8 -2 0 -6 -4
-9 -8z"/>
<path d="M4090 642 c0 -5 7 -9 15 -9 8 0 12 4 9 9 -3 4 -9 8 -15 8 -5 0 -9 -4
-9 -8z"/>
<path d="M1057 609 c7 -7 15 -10 18 -7 3 3 -2 9 -12 12 -14 6 -15 5 -6 -5z"/>
<path d="M4061 611 c-7 -5 -9 -11 -5 -14 5 -3 15 1 22 9 14 16 5 18 -17 5z"/>
<path d="M1060 580 c8 -5 20 -10 25 -10 6 0 3 5 -5 10 -8 5 -19 10 -25 10 -5
0 -3 -5 5 -10z"/>
<path d="M1110 569 c0 -5 5 -7 10 -4 6 3 10 8 10 11 0 2 -4 4 -10 4 -5 0 -10
-5 -10 -11z"/>
<path d="M1107 539 c7 -7 15 -10 18 -7 3 3 -2 9 -12 12 -14 6 -15 5 -6 -5z"/>
<path d="M3986 525 c-11 -8 -15 -15 -9 -15 6 0 16 7 23 15 16 19 11 19 -14 0z"/>
<path d="M1156 522 c-2 -4 -1 -14 4 -22 7 -11 9 -9 7 8 -1 24 -3 26 -11 14z"/>
<path d="M3916 491 c-4 -5 -2 -12 3 -15 5 -4 12 -2 15 3 4 5 2 12 -3 15 -5 4
-12 2 -15 -3z"/>
<path d="M1250 465 c0 -13 20 -35 32 -35 4 0 8 5 8 12 0 6 -3 8 -7 5 -3 -4
-12 1 -19 11 -7 9 -14 12 -14 7z"/>
<path d="M3904 444 c-18 -14 -18 -15 4 -4 12 6 22 13 22 15 0 8 -5 6 -26 -11z"/>
<path d="M1290 411 c0 -6 4 -13 10 -16 6 -3 7 1 4 9 -7 18 -14 21 -14 7z"/>
<path d="M1390 369 c0 -5 -6 -7 -12 -3 -7 4 -9 3 -5 -1 13 -15 36 -14 30 1 -6
17 -13 18 -13 3z"/>
<path d="M1415 340 c-3 -5 -1 -10 4 -10 6 0 11 5 11 10 0 6 -2 10 -4 10 -3 0
-8 -4 -11 -10z"/>
<path d="M1460 335 c-7 -9 -11 -17 -9 -20 3 -2 10 5 17 15 14 24 10 26 -8 5z"/>
<path d="M3642 330 c-7 -11 -8 -20 -3 -20 9 0 24 30 18 36 -1 2 -8 -6 -15 -16z"/>
<path d="M3674 336 c1 -8 5 -18 8 -22 4 -3 5 1 4 10 -1 8 -5 18 -8 22 -4 3 -5
-1 -4 -10z"/>
<path d="M1540 316 c0 -2 7 -7 16 -10 8 -3 12 -2 9 4 -6 10 -25 14 -25 6z"/>
<path d="M3546 298 c3 -5 -6 -7 -20 -4 -14 3 -28 0 -32 -5 -9 -15 5 -24 17
-12 6 6 17 9 24 7 6 -3 17 1 23 9 9 11 8 14 -3 14 -8 0 -12 -4 -9 -9z"/>
<path d="M1533 285 c0 -7 6 -11 14 -8 7 3 13 6 13 8 0 2 -6 5 -13 8 -8 3 -14
-1 -14 -8z"/>
<path d="M3385 270 c-2 -3 0 -12 6 -20 6 -11 9 -12 9 -2 0 7 4 11 8 8 5 -3 9
1 9 8 0 13 -25 18 -32 6z"/>
<path d="M3285 261 c-3 -6 -1 -11 5 -11 6 0 9 -4 6 -8 -3 -5 1 -9 9 -9 12 0
12 3 3 16 -7 9 -13 17 -14 19 -1 2 -5 -1 -9 -7z"/>
<path d="M3335 252 c-8 -21 -3 -22 17 -2 14 13 15 17 3 17 -8 0 -17 -7 -20
-15z"/>
<path d="M3470 260 c0 -5 5 -10 11 -10 5 0 7 5 4 10 -3 6 -8 10 -11 10 -2 0
-4 -4 -4 -10z"/>
<path d="M1997 247 c3 -4 8 -6 11 -3 3 3 11 1 18 -5 9 -7 19 -7 34 1 20 11 21
10 15 -12 -8 -26 -3 -23 13 7 10 19 7 20 -43 20 -30 1 -51 -3 -48 -8z"/>
<path d="M2122 251 c-11 -7 -11 -9 0 -14 9 -3 15 1 15 9 0 8 -1 14 -1 14 -1 0
-7 -4 -14 -9z"/>
<path d="M2155 251 c-3 -2 -5 -9 -5 -15 0 -6 5 -4 10 4 9 13 10 13 11 0 1 -8
0 -19 -1 -25 -1 -5 2 -6 7 -2 4 5 8 14 8 20 0 5 6 12 14 15 9 3 11 0 6 -8 -5
-8 -4 -11 3 -6 5 3 13 0 15 -6 4 -9 6 -10 6 -1 1 6 -5 15 -11 20 -14 9 -56 12
-63 4z"/>
<path d="M2264 248 c-3 -5 -3 -12 0 -15 3 -4 6 -1 6 5 0 7 5 12 11 12 5 0 8
-4 5 -8 -3 -5 1 -9 9 -9 8 0 15 4 15 9 0 5 4 7 9 3 5 -3 12 -2 14 2 3 5 -10 8
-29 9 -19 0 -37 -3 -40 -8z"/>
<path d="M2362 251 c-11 -7 -11 -9 0 -14 9 -3 15 1 15 9 0 8 -1 14 -1 14 -1 0
-7 -4 -14 -9z"/>
<path d="M2393 247 c-3 -4 -2 -11 1 -14 3 -4 6 -1 6 6 0 9 5 9 21 0 15 -8 19
-8 15 0 -4 6 -3 11 3 11 5 0 12 -5 14 -10 3 -6 4 -5 3 2 -3 15 -54 19 -63 5z"/>
<path d="M2477 247 c3 -4 8 -6 11 -3 3 3 11 1 18 -5 9 -7 19 -7 34 1 12 6 23
10 24 8 2 -2 8 -12 14 -23 6 -11 11 -15 12 -10 0 27 -21 40 -69 40 -27 1 -47
-3 -44 -8z"/>
<path d="M2623 245 c-3 -9 -3 -19 1 -22 3 -4 6 1 6 10 0 20 11 22 30 5 12 -11
12 -10 1 5 -17 21 -30 22 -38 2z"/>
<path d="M2679 236 c5 -20 5 -20 9 -2 3 15 6 16 13 5 6 -10 9 -10 9 -1 0 20
18 14 25 -9 4 -11 9 -18 12 -16 13 13 -18 42 -45 43 -25 0 -28 -3 -23 -20z"/>
<path d="M2783 245 c-3 -9 -3 -19 1 -22 3 -4 6 1 6 10 0 20 11 22 30 5 12 -11
12 -10 1 5 -17 21 -30 22 -38 2z"/>
<path d="M2865 252 c-3 -3 -5 -10 -5 -16 0 -6 4 -5 9 3 7 10 13 11 31 1 15 -8
20 -8 16 -1 -4 6 -3 11 3 11 5 0 12 -5 14 -10 3 -6 4 -5 3 2 -2 12 -60 21 -71
10z"/>
<path d="M2957 247 c3 -4 8 -6 11 -3 3 3 11 1 18 -5 9 -7 19 -7 34 1 20 11 21
10 15 -12 -8 -26 -3 -23 13 7 10 19 7 20 -43 20 -30 1 -51 -3 -48 -8z"/>
<path d="M3082 251 c-11 -7 -11 -9 0 -14 9 -3 15 1 15 9 0 8 -1 14 -1 14 -1 0
-7 -4 -14 -9z"/>
<path d="M3113 247 c-3 -4 -2 -11 1 -14 3 -4 6 0 6 8 1 8 7 3 16 -11 11 -19
14 -21 12 -6 -2 10 3 21 11 24 9 3 11 0 6 -8 -5 -8 -4 -11 3 -6 5 3 13 0 15
-6 4 -9 6 -10 6 -1 2 24 -63 41 -76 20z"/>
<path d="M3224 249 c-3 -6 -3 -13 0 -16 3 -4 6 -1 6 5 0 7 5 12 11 12 5 0 7
-4 4 -10 -9 -14 1 -12 13 3 8 10 6 13 -8 14 -11 1 -22 -3 -26 -8z"/>
<path d="M1710 246 c0 -2 7 -7 16 -10 8 -3 12 -2 9 4 -6 10 -25 14 -25 6z"/>
<path d="M1753 225 c0 -8 4 -12 9 -9 5 3 6 10 3 15 -9 13 -12 11 -12 -6z"/>
<path d="M2315 220 c-3 -6 1 -7 9 -4 18 7 21 14 7 14 -6 0 -13 -4 -16 -10z"/>
</g>
</svg>
