<svg width="250" height="50" viewBox="0 0 250 50" fill="none" xmlns="http://www.w3.org/2000/svg">
<g clip-path="url(#clip0_2_2)">
<rect x="1" y="5" width="40" height="40" rx="8" fill="#3B82F6"/>
<g filter="url(#filter0_d_2_2)">
<path d="M52.0824 13.44L60.4344 27.192L68.8584 13.44H71.5944L61.6944 29.496V39H59.1744V29.424L49.3104 13.44H52.0824ZM79.5709 39.36C78.2269 39.36 76.9789 39.108 75.8269 38.604C74.6989 38.076 73.7149 37.368 72.8749 36.48C72.0589 35.568 71.4229 34.536 70.9669 33.384C70.5109 32.208 70.2829 30.972 70.2829 29.676C70.2829 28.332 70.5109 27.084 70.9669 25.932C71.4229 24.756 72.0709 23.724 72.9109 22.836C73.7509 21.924 74.7349 21.216 75.8629 20.712C77.0149 20.184 78.2629 19.92 79.6069 19.92C80.9509 19.92 82.1869 20.184 83.3149 20.712C84.4429 21.216 85.4269 21.924 86.2669 22.836C87.1069 23.724 87.7549 24.756 88.2109 25.932C88.6669 27.084 88.8949 28.332 88.8949 29.676C88.8949 30.972 88.6669 32.208 88.2109 33.384C87.7549 34.536 87.1069 35.568 86.2669 36.48C85.4509 37.368 84.4669 38.076 83.3149 38.604C82.1869 39.108 80.9389 39.36 79.5709 39.36ZM72.7669 29.712C72.7669 31.104 73.0669 32.376 73.6669 33.528C74.2909 34.656 75.1189 35.556 76.1509 36.228C77.1829 36.876 78.3229 37.2 79.5709 37.2C80.8189 37.2 81.9589 36.864 82.9909 36.192C84.0229 35.52 84.8509 34.608 85.4749 33.456C86.0989 32.28 86.4109 31.008 86.4109 29.64C86.4109 28.248 86.0989 26.976 85.4749 25.824C84.8509 24.672 84.0229 23.76 82.9909 23.088C81.9589 22.416 80.8189 22.08 79.5709 22.08C78.3229 22.08 77.1829 22.428 76.1509 23.124C75.1429 23.82 74.3269 24.744 73.7029 25.896C73.0789 27.024 72.7669 28.296 72.7669 29.712ZM100.513 39.252C99.2411 39.252 98.0651 38.988 96.9851 38.46C95.9051 37.932 94.9691 37.224 94.1771 36.336C93.4091 35.424 92.8091 34.392 92.3771 33.24C91.9451 32.088 91.7291 30.9 91.7291 29.676C91.7291 28.356 91.9331 27.12 92.3411 25.968C92.7731 24.792 93.3731 23.748 94.1411 22.836C94.9331 21.924 95.8571 21.216 96.9131 20.712C97.9691 20.184 99.1451 19.92 100.441 19.92C102.049 19.92 103.441 20.328 104.617 21.144C105.817 21.96 106.825 22.968 107.641 24.168V20.244H109.837V39.072C109.837 40.8 109.417 42.252 108.577 43.428C107.761 44.628 106.645 45.528 105.229 46.128C103.837 46.728 102.313 47.028 100.657 47.028C98.5211 47.028 96.7931 46.644 95.4731 45.876C94.1531 45.108 93.0731 44.076 92.2331 42.78L93.7451 41.592C94.4891 42.768 95.4731 43.644 96.6971 44.22C97.9451 44.796 99.2651 45.084 100.657 45.084C101.881 45.084 102.997 44.856 104.005 44.4C105.037 43.968 105.853 43.308 106.453 42.42C107.077 41.532 107.389 40.416 107.389 39.072V35.364C106.669 36.54 105.685 37.488 104.437 38.208C103.189 38.904 101.881 39.252 100.513 39.252ZM101.197 37.2C101.941 37.2 102.649 37.068 103.321 36.804C104.017 36.54 104.653 36.192 105.229 35.76C105.805 35.304 106.285 34.8 106.669 34.248C107.053 33.696 107.293 33.132 107.389 32.556V26.76C107.029 25.848 106.513 25.044 105.841 24.348C105.169 23.628 104.401 23.076 103.537 22.692C102.697 22.284 101.821 22.08 100.909 22.08C99.8531 22.08 98.9051 22.308 98.0651 22.764C97.2491 23.196 96.5531 23.784 95.9771 24.528C95.4251 25.248 94.9931 26.064 94.6811 26.976C94.3691 27.888 94.2131 28.8 94.2131 29.712C94.2131 30.72 94.3931 31.68 94.7531 32.592C95.1131 33.48 95.6051 34.284 96.2291 35.004C96.8771 35.7 97.6211 36.24 98.4611 36.624C99.3251 37.008 100.237 37.2 101.197 37.2ZM113.731 33.6C113.731 32.424 114.067 31.416 114.739 30.576C115.411 29.712 116.335 29.052 117.511 28.596C118.711 28.116 120.091 27.876 121.651 27.876C122.563 27.876 123.511 27.948 124.495 28.092C125.479 28.236 126.355 28.452 127.123 28.74V27.156C127.123 25.572 126.655 24.312 125.719 23.376C124.783 22.44 123.487 21.972 121.831 21.972C120.823 21.972 119.827 22.164 118.843 22.548C117.883 22.908 116.875 23.448 115.819 24.168L114.883 22.44C116.107 21.6 117.307 20.976 118.483 20.568C119.659 20.136 120.859 19.92 122.083 19.92C124.387 19.92 126.211 20.58 127.555 21.9C128.899 23.22 129.571 25.044 129.571 27.372V36.048C129.571 36.384 129.643 36.636 129.787 36.804C129.931 36.948 130.159 37.032 130.471 37.056V39C130.207 39.024 129.979 39.048 129.787 39.072C129.595 39.096 129.451 39.096 129.355 39.072C128.755 39.048 128.299 38.856 127.987 38.496C127.675 38.136 127.507 37.752 127.483 37.344L127.447 35.976C126.607 37.056 125.515 37.896 124.171 38.496C122.827 39.072 121.459 39.36 120.067 39.36C118.867 39.36 117.775 39.108 116.791 38.604C115.831 38.076 115.075 37.38 114.523 36.516C113.995 35.628 113.731 34.656 113.731 33.6ZM126.295 35.04C126.559 34.704 126.763 34.38 126.907 34.068C127.051 33.756 127.123 33.48 127.123 33.24V30.504C126.307 30.192 125.455 29.952 124.567 29.784C123.703 29.616 122.827 29.532 121.939 29.532C120.187 29.532 118.771 29.88 117.691 30.576C116.611 31.272 116.071 32.22 116.071 33.42C116.071 34.116 116.251 34.776 116.611 35.4C116.971 36 117.499 36.504 118.195 36.912C118.891 37.296 119.707 37.488 120.643 37.488C121.819 37.488 122.911 37.26 123.919 36.804C124.951 36.348 125.743 35.76 126.295 35.04ZM143.284 13.44H145.408L156.028 39H153.364L150.052 31.008H138.568L135.292 39H132.592L143.284 13.44ZM149.476 29.028L144.328 16.392L139.108 29.028H149.476ZM157.401 29.676C157.401 27.9 157.761 26.28 158.481 24.816C159.225 23.328 160.245 22.14 161.541 21.252C162.837 20.364 164.313 19.92 165.969 19.92C167.529 19.92 168.921 20.34 170.145 21.18C171.393 21.996 172.365 22.992 173.061 24.168V12.72H175.509V36.048C175.509 36.384 175.581 36.636 175.725 36.804C175.869 36.948 176.085 37.032 176.373 37.056V39C175.893 39.072 175.521 39.096 175.257 39.072C174.753 39.048 174.309 38.844 173.925 38.46C173.541 38.076 173.349 37.656 173.349 37.2V35.364C172.605 36.588 171.597 37.56 170.325 38.28C169.053 39 167.733 39.36 166.365 39.36C165.069 39.36 163.869 39.096 162.765 38.568C161.685 38.04 160.737 37.32 159.921 36.408C159.129 35.496 158.505 34.464 158.049 33.312C157.617 32.136 157.401 30.924 157.401 29.676ZM173.061 32.556V26.76C172.749 25.896 172.245 25.116 171.549 24.42C170.853 23.7 170.061 23.136 169.173 22.728C168.309 22.296 167.445 22.08 166.581 22.08C165.573 22.08 164.661 22.296 163.845 22.728C163.029 23.136 162.321 23.7 161.721 24.42C161.145 25.14 160.701 25.956 160.389 26.868C160.077 27.78 159.921 28.716 159.921 29.676C159.921 30.684 160.089 31.644 160.425 32.556C160.785 33.468 161.289 34.284 161.937 35.004C162.585 35.7 163.329 36.24 164.169 36.624C165.009 37.008 165.921 37.2 166.905 37.2C167.529 37.2 168.177 37.08 168.849 36.84C169.521 36.6 170.157 36.276 170.757 35.868C171.381 35.436 171.897 34.932 172.305 34.356C172.713 33.78 172.965 33.18 173.061 32.556ZM208.955 39H206.507V28.524C206.507 26.34 206.159 24.732 205.463 23.7C204.767 22.668 203.735 22.152 202.367 22.152C200.951 22.152 199.679 22.656 198.551 23.664C197.447 24.672 196.667 25.968 196.211 27.552V39H193.763V28.524C193.763 26.316 193.427 24.708 192.755 23.7C192.083 22.668 191.051 22.152 189.659 22.152C188.267 22.152 187.007 22.644 185.879 23.628C184.751 24.612 183.959 25.908 183.503 27.516V39H181.055V20.244H183.287V24.492C184.079 23.028 185.087 21.9 186.311 21.108C187.559 20.316 188.939 19.92 190.451 19.92C192.011 19.92 193.271 20.364 194.231 21.252C195.191 22.14 195.779 23.304 195.995 24.744C196.859 23.16 197.891 21.96 199.091 21.144C200.315 20.328 201.695 19.92 203.231 19.92C204.287 19.92 205.175 20.112 205.895 20.496C206.639 20.88 207.227 21.432 207.659 22.152C208.115 22.848 208.439 23.7 208.631 24.708C208.847 25.692 208.955 26.796 208.955 28.02V39ZM214.138 39V20.244H216.586V39H214.138ZM214.138 16.32V12.72H216.586V16.32H214.138ZM237.745 39H235.297V28.524C235.297 26.316 234.973 24.708 234.325 23.7C233.677 22.668 232.657 22.152 231.265 22.152C230.305 22.152 229.357 22.392 228.421 22.872C227.485 23.328 226.657 23.964 225.937 24.78C225.241 25.572 224.737 26.484 224.425 27.516V39H221.977V20.244H224.209V24.492C224.713 23.58 225.373 22.788 226.189 22.116C227.005 21.42 227.929 20.88 228.961 20.496C229.993 20.112 231.061 19.92 232.165 19.92C233.197 19.92 234.073 20.112 234.793 20.496C235.513 20.88 236.089 21.432 236.521 22.152C236.953 22.848 237.265 23.7 237.457 24.708C237.649 25.692 237.745 26.796 237.745 28.02V39Z" fill="#3B82F6" fill-opacity="0.67" shape-rendering="crispEdges"/>
</g>
<path d="M19.9842 38C19.7309 38 19.5156 37.924 19.3382 37.772C19.1862 37.5947 19.1102 37.3793 19.1102 37.126V28.158L9.95224 12.654C9.92691 12.578 9.90158 12.502 9.87624 12.426C9.85091 12.35 9.83824 12.2613 9.83824 12.16C9.83824 11.9573 9.91424 11.78 10.0662 11.628C10.2182 11.476 10.3956 11.4 10.5982 11.4H12.5742C12.8022 11.4 13.0049 11.4633 13.1822 11.59C13.3596 11.6913 13.4862 11.8433 13.5622 12.046L20.9722 24.358L28.3822 12.046C28.5089 11.8433 28.6482 11.6913 28.8002 11.59C28.9776 11.4633 29.1802 11.4 29.4082 11.4H31.3462C31.5742 11.4 31.7642 11.476 31.9162 11.628C32.0682 11.78 32.1442 11.9573 32.1442 12.16C32.1442 12.2613 32.1316 12.35 32.1062 12.426C32.0809 12.502 32.0429 12.578 31.9922 12.654L22.8722 28.158V37.126C22.8722 37.3793 22.7836 37.5947 22.6062 37.772C22.4542 37.924 22.2389 38 21.9602 38H19.9842Z" fill="white"/>
</g>
<defs>
<filter id="filter0_d_2_2" x="45.3104" y="12.72" width="196.435" height="42.308" filterUnits="userSpaceOnUse" color-interpolation-filters="sRGB">
<feFlood flood-opacity="0" result="BackgroundImageFix"/>
<feColorMatrix in="SourceAlpha" type="matrix" values="0 0 0 0 0 0 0 0 0 0 0 0 0 0 0 0 0 0 127 0" result="hardAlpha"/>
<feOffset dy="4"/>
<feGaussianBlur stdDeviation="2"/>
<feComposite in2="hardAlpha" operator="out"/>
<feColorMatrix type="matrix" values="0 0 0 0 0 0 0 0 0 0 0 0 0 0 0 0 0 0 0.25 0"/>
<feBlend mode="normal" in2="BackgroundImageFix" result="effect1_dropShadow_2_2"/>
<feBlend mode="normal" in="SourceGraphic" in2="effect1_dropShadow_2_2" result="shape"/>
</filter>
<clipPath id="clip0_2_2">
<rect width="250" height="50" fill="white"/>
</clipPath>
</defs>
</svg>
