<svg width="42" height="50" viewBox="0 0 42 50" fill="none" xmlns="http://www.w3.org/2000/svg">
<rect x="1" y="5" width="40" height="40" rx="8" fill="#3B82F6"/>
<path d="M19.9842 38C19.7309 38 19.5156 37.924 19.3382 37.772C19.1862 37.5947 19.1102 37.3793 19.1102 37.126V28.158L9.95224 12.654C9.92691 12.578 9.90158 12.502 9.87624 12.426C9.85091 12.35 9.83824 12.2613 9.83824 12.16C9.83824 11.9573 9.91424 11.78 10.0662 11.628C10.2182 11.476 10.3956 11.4 10.5982 11.4H12.5742C12.8022 11.4 13.0049 11.4633 13.1822 11.59C13.3596 11.6913 13.4862 11.8433 13.5622 12.046L20.9722 24.358L28.3822 12.046C28.5089 11.8433 28.6482 11.6913 28.8002 11.59C28.9776 11.4633 29.1802 11.4 29.4082 11.4H31.3462C31.5742 11.4 31.7642 11.476 31.9162 11.628C32.0682 11.78 32.1442 11.9573 32.1442 12.16C32.1442 12.2613 32.1316 12.35 32.1062 12.426C32.0809 12.502 32.0429 12.578 31.9922 12.654L22.8722 28.158V37.126C22.8722 37.3793 22.7836 37.5947 22.6062 37.772C22.4542 37.924 22.2389 38 21.9602 38H19.9842Z" fill="white"/>
</svg>
